<svg xmlns="http://www.w3.org/2000/svg" viewBox="0 0 256 256"><rect width="256" height="256" rx="24" fill="#0b1018"/><circle cx="128" cy="100" r="61" fill="#f3d7d1"/><path d="M67 109Q63 27 128 28t61 81q-13-37-38-48-23 19-64 13-17 19-20 35z" fill="#2b2328"/><path d="M62 256q8-83 66-83t66 83" fill="#d995b5"/><path d="M108 104h1 M148 104h1" stroke="#4c3038" stroke-width="7" stroke-linecap="round" fill="none"/><path d="M108 126 q20 14 40 0" stroke="#9b5668" stroke-width="4" stroke-linecap="round" fill="none"/><path d="M171 56q18 0 24 14-10 7-23 1 9 9 1 21-13-8-10-20" fill="#e5a1bd"/><g stroke="#ff5fad" opacity=".75"><path d="M55 75h42M165 86h36M74 155h33M155 166h55"/></g></svg>